<svg xmlns="http://www.w3.org/2000/svg" width="682.667" height="682.667" preserveAspectRatio="xMidYMid meet" version="1.0" viewBox="0 0 512 512"><metadata>Created by potrace 1.16, written by Peter Selinger 2001-2019</metadata><g fill="#FFF" stroke="none"><path d="M360 5101 c-91 -29 -142 -61 -211 -130 -70 -70 -106 -130 -133 -220 -14 -50 -16 -255 -16 -2191 0 -2343 -4 -2173 58 -2295 32 -64 143 -175 207 -207 122 -62 -48 -58 2295 -58 2343 0 2173 -4 2295 58 64 32 175 143 207 207 62 122 58 -48 58 2295 0 2343 4 2173 -58 2295 -32 64 -143 175 -207 207 -122 62 49 58 -2299 57 -2024 0 -2144 -1 -2196 -18z m2530 -1698 l0 -648 24 58 c93 226 306 406 562 474 133 35 349 37 491 5 461 -105 747 -488 770 -1032 25 -617 -267 -1058 -780 -1174 -77 -18 -240 -26 -332 -16 -137 14 -205 33 -323 92 -82 40 -120 66 -187 130 -91 86 -165 187 -201 277 l-23 56 -3 -265 -3 -265 -182 -3 -183 -2 0 1480 0 1480 185 0 185 0 0 -647z m-932 -615 l-4 -1123 -22 -80 c-57 -204 -173 -355 -337 -437 -208 -105 -525 -111 -764 -14 -194 79 -349 263 -411 486 -21 78 -45 284 -35 301 4 5 84 9 186 9 l179 0 0 -44 c0 -186 96 -378 220 -441 97 -49 283 -59 392 -20 102 36 194 156 218 284 6 34 10 450 10 1127 l0 1074 185 0 186 0 -3 -1122z" transform="translate(0.000000,512.000000) scale(0.100000,-0.100000)"/><path d="M3515 2984 c-11 -2 -45 -9 -75 -15 -73 -15 -200 -75 -276 -131 -58 -43 -124 -120 -171 -198 -34 -55 -79 -179 -94 -255 -19 -96 -17 -319 5 -414 60 -267 230 -460 482 -548 73 -25 91 -27 239 -28 182 0 242 12 365 72 110 54 233 179 288 293 67 137 86 235 86 430 0 232 -31 353 -130 501 -86 130 -233 233 -389 275 -58 15 -289 28 -330 18z" transform="translate(0.000000,512.000000) scale(0.100000,-0.100000)"/></g></svg>